<svg width="303" height="59" viewBox="0 0 303 59" fill="white" xmlns="http://www.w3.org/2000/svg">
<path d="M0.89875 58V2H20.1788C24.6054 2 28.2321 2.74666 31.0588 4.24C33.9388 5.73333 36.0721 7.76 37.4587 10.32C38.8454 12.8267 39.5388 15.6267 39.5388 18.72C39.5388 22.1867 38.6054 25.3333 36.7388 28.16C34.9254 30.9867 32.0721 33.0133 28.1788 34.24L40.0988 58H30.2588L19.3788 35.44H9.37875V58H0.89875ZM9.37875 29.04H19.6988C23.5388 29.04 26.3388 28.1067 28.0988 26.24C29.9121 24.3733 30.8188 21.9467 30.8188 18.96C30.8188 15.9733 29.9388 13.6 28.1788 11.84C26.4188 10.0267 23.5654 9.12 19.6188 9.12H9.37875V29.04ZM65.3888 58.96C61.4954 58.96 58.0288 58.1067 54.9888 56.4C52.0021 54.64 49.6554 52.2133 47.9488 49.12C46.2421 46.0267 45.3888 42.4267 45.3888 38.32C45.3888 34.16 46.2154 30.5067 47.8688 27.36C49.5754 24.2133 51.9221 21.76 54.9088 20C57.9488 18.24 61.4688 17.36 65.4688 17.36C69.3621 17.36 72.7488 18.24 75.6288 20C78.5088 21.7067 80.7488 24 82.3488 26.88C83.9488 29.76 84.7488 32.9333 84.7488 36.4C84.7488 36.9333 84.7221 37.52 84.6688 38.16C84.6688 38.7467 84.6421 39.4133 84.5888 40.16H53.7088C53.9754 44 55.2288 46.9333 57.4688 48.96C59.7621 50.9333 62.4021 51.92 65.3888 51.92C67.7888 51.92 69.7888 51.3867 71.3888 50.32C73.0421 49.2 74.2688 47.7067 75.0688 45.84H83.5488C82.4821 49.5733 80.3488 52.6933 77.1488 55.2C74.0021 57.7067 70.0821 58.96 65.3888 58.96ZM65.3888 24.32C62.5621 24.32 60.0554 25.1733 57.8688 26.88C55.6821 28.5333 54.3488 31.04 53.8688 34.4H76.2688C76.1088 31.3067 75.0154 28.8533 72.9888 27.04C70.9621 25.2267 68.4288 24.32 65.3888 24.32ZM95.5475 58V25.44H89.8675V18.32H95.5475V12.56C95.5475 8.24 96.6142 5.14666 98.7475 3.28C100.934 1.36 104.001 0.399998 107.948 0.399998H112.108V7.6H109.228C107.361 7.6 106.028 8 105.228 8.8C104.428 9.54667 104.028 10.8267 104.028 12.64V18.32H113.148V25.44H104.028V58H95.5475ZM138.201 58.96C134.415 58.96 131.001 58.1067 127.961 56.4C124.975 54.64 122.601 52.2133 120.841 49.12C119.081 45.9733 118.201 42.32 118.201 38.16C118.201 34 119.081 30.3733 120.841 27.28C122.655 24.1333 125.081 21.7067 128.121 20C131.161 18.24 134.548 17.36 138.281 17.36C142.068 17.36 145.455 18.24 148.441 20C151.481 21.7067 153.881 24.1333 155.641 27.28C157.455 30.3733 158.361 34 158.361 38.16C158.361 42.32 157.455 45.9733 155.641 49.12C153.881 52.2133 151.481 54.64 148.441 56.4C145.401 58.1067 141.988 58.96 138.201 58.96ZM138.201 51.68C140.228 51.68 142.095 51.1733 143.801 50.16C145.561 49.1467 146.975 47.6533 148.041 45.68C149.108 43.6533 149.641 41.1467 149.641 38.16C149.641 35.1733 149.108 32.6933 148.041 30.72C147.028 28.6933 145.641 27.1733 143.881 26.16C142.175 25.1467 140.308 24.64 138.281 24.64C136.255 24.64 134.361 25.1467 132.601 26.16C130.895 27.1733 129.508 28.6933 128.441 30.72C127.375 32.6933 126.841 35.1733 126.841 38.16C126.841 41.1467 127.375 43.6533 128.441 45.68C129.508 47.6533 130.895 49.1467 132.601 50.16C134.308 51.1733 136.175 51.68 138.201 51.68ZM167.532 58V18.32H175.132L175.852 25.84C177.239 23.2267 179.159 21.1733 181.612 19.68C184.119 18.1333 187.132 17.36 190.652 17.36V26.24H188.332C185.985 26.24 183.879 26.64 182.012 27.44C180.199 28.1867 178.732 29.4933 177.612 31.36C176.545 33.1733 176.012 35.7067 176.012 38.96V58H167.532ZM197.923 58V18.32H205.443L206.163 23.92C207.443 21.8933 209.123 20.2933 211.203 19.12C213.336 17.9467 215.789 17.36 218.563 17.36C224.856 17.36 229.229 19.84 231.683 24.8C233.123 22.5067 235.043 20.6933 237.443 19.36C239.896 18.0267 242.536 17.36 245.363 17.36C250.323 17.36 254.216 18.8533 257.043 21.84C259.869 24.8267 261.283 29.28 261.283 35.2V58H252.803V36.08C252.803 28.4 249.869 24.56 244.003 24.56C241.016 24.56 238.563 25.68 236.642 27.92C234.776 30.16 233.843 33.36 233.843 37.52V58H225.363V36.08C225.363 28.4 222.403 24.56 216.483 24.56C213.549 24.56 211.123 25.68 209.203 27.92C207.336 30.16 206.403 33.36 206.403 37.52V58H197.923ZM287.044 58.96C282.03 58.96 277.897 57.7333 274.644 55.28C271.39 52.8267 269.524 49.5733 269.044 45.52H277.604C278.03 47.3333 279.044 48.9067 280.644 50.24C282.244 51.52 284.35 52.16 286.964 52.16C289.524 52.16 291.39 51.6267 292.564 50.56C293.737 49.4933 294.324 48.2667 294.324 46.88C294.324 44.8533 293.497 43.4933 291.844 42.8C290.244 42.0533 288.004 41.3867 285.124 40.8C282.884 40.32 280.644 39.68 278.404 38.88C276.217 38.08 274.377 36.96 272.884 35.52C271.444 34.0267 270.724 32.0267 270.724 29.52C270.724 26.0533 272.057 23.1733 274.724 20.88C277.39 18.5333 281.124 17.36 285.924 17.36C290.35 17.36 293.924 18.4267 296.644 20.56C299.417 22.6933 301.044 25.7067 301.524 29.6H293.364C293.097 27.8933 292.297 26.56 290.964 25.6C289.684 24.64 287.95 24.16 285.764 24.16C283.63 24.16 281.977 24.6133 280.804 25.52C279.63 26.3733 279.044 27.4933 279.044 28.88C279.044 30.2667 279.844 31.36 281.444 32.16C283.097 32.96 285.257 33.68 287.924 34.32C290.59 34.9067 293.044 35.6 295.284 36.4C297.577 37.1467 299.417 38.2667 300.804 39.76C302.19 41.2533 302.884 43.44 302.884 46.32C302.937 49.9467 301.524 52.96 298.644 55.36C295.817 57.76 291.95 58.96 287.044 58.96Z" />
</svg>
